<svg id="svg" version="1.1" xmlns="http://www.w3.org/2000/svg" xmlns:xlink="http://www.w3.org/1999/xlink" width="400" height="400" viewBox="0, 0, 400,400"><g id="svgg"><path id="path0" d="M202.984 56.601 C 199.926 65.307,184.097 102.083,173.396 125.343 L 169.319 134.206 171.789 136.873 C 176.356 141.806,199.051 166.087,201.316 168.463 L 203.557 170.815 215.050 158.463 C 221.371 151.669,229.058 143.451,232.132 140.199 L 237.722 134.287 237.231 133.162 C 236.960 132.543,234.411 126.954,231.565 120.741 C 222.306 100.525,213.125 79.295,206.390 62.527 L 203.463 55.239 202.984 56.601 M98.889 132.983 C 74.723 133.246,69.879 133.345,70.741 133.555 C 71.046 133.629,77.213 134.278,84.444 134.996 C 116.792 138.209,127.354 140.030,131.180 143.051 C 138.708 148.996,185.556 198.645,185.556 200.678 C 185.556 200.967,173.781 212.892,159.389 227.176 C 144.998 241.461,130.384 256.148,126.914 259.815 C 123.444 263.481,120.056 266.776,119.384 267.135 C 115.358 269.288,96.510 272.487,66.515 276.109 C 60.626 276.821,55.746 277.464,55.671 277.538 C 55.426 277.784,73.684 278.138,109.381 278.579 L 144.503 279.014 174.011 249.507 L 203.520 220.001 233.026 249.507 L 262.533 279.014 297.655 278.579 C 333.353 278.138,351.611 277.784,351.366 277.538 C 351.291 277.464,346.411 276.821,340.522 276.109 C 310.527 272.487,291.679 269.288,287.653 267.135 C 286.981 266.776,283.593 263.481,280.123 259.815 C 276.653 256.148,262.039 241.461,247.648 227.176 C 233.256 212.892,221.481 200.967,221.481 200.678 C 221.481 199.911,222.136 199.120,228.889 191.721 C 250.807 167.709,270.585 147.215,275.858 143.051 C 279.683 140.030,290.245 138.209,322.593 134.996 C 329.824 134.278,335.991 133.641,336.296 133.581 C 337.548 133.336,314.204 132.955,284.202 132.731 L 252.292 132.492 251.209 133.264 C 249.819 134.254,234.548 150.295,219.409 166.667 C 212.911 173.694,206.669 180.420,205.538 181.612 L 203.481 183.779 192.759 172.174 C 179.407 157.724,166.827 144.341,160.336 137.685 L 155.370 132.592 138.333 132.665 C 128.963 132.705,111.213 132.848,98.889 132.983 M142.491 190.093 C 135.076 205.124,123.790 227.297,112.132 249.739 C 108.873 256.013,106.308 261.246,106.431 261.369 C 106.554 261.492,108.507 261.152,110.771 260.614 L 114.888 259.635 121.747 252.503 C 125.520 248.580,138.847 235.204,151.364 222.778 L 174.121 200.185 165.857 191.262 C 152.180 176.496,150.591 174.815,150.303 174.815 C 150.151 174.815,146.636 181.690,142.491 190.093 M252.951 178.577 C 251.022 180.646,245.726 186.355,241.180 191.262 L 232.916 200.185 255.673 222.778 C 268.190 235.204,281.517 248.580,285.290 252.503 L 292.149 259.635 296.266 260.614 C 298.530 261.152,300.483 261.492,300.606 261.369 C 300.729 261.246,298.164 256.013,294.905 249.739 C 283.247 227.297,271.961 205.124,264.546 190.093 C 260.401 181.690,256.886 174.815,256.734 174.815 C 256.582 174.815,254.880 176.508,252.951 178.577 M169.441 266.442 C 168.421 267.482,163.051 272.718,157.508 278.078 L 147.431 287.822 119.870 287.708 L 92.310 287.593 89.426 292.963 C 83.286 304.398,72.271 324.708,66.999 334.314 C 63.965 339.844,61.481 344.469,61.481 344.591 C 61.481 345.545,71.550 344.755,73.410 343.655 C 105.262 324.818,144.623 309.120,169.486 305.338 C 171.915 304.969,171.930 304.939,171.307 301.642 C 169.129 290.121,169.111 275.918,171.262 266.574 C 171.848 264.032,171.809 264.029,169.441 266.442 M235.775 266.574 C 237.926 275.918,237.908 290.121,235.730 301.642 C 235.107 304.939,235.122 304.969,237.551 305.338 C 262.414 309.120,301.775 324.818,333.627 343.655 C 335.495 344.760,345.556 345.543,345.556 344.584 C 345.556 344.457,344.075 341.666,342.266 338.380 C 336.616 328.122,330.367 316.628,322.608 302.222 C 318.493 294.583,314.988 288.190,314.819 288.015 C 314.650 287.840,302.157 287.724,287.056 287.756 L 259.599 287.815 249.523 278.074 C 243.981 272.717,238.546 267.458,237.445 266.389 C 236.344 265.319,235.407 264.444,235.364 264.444 C 235.320 264.444,235.505 265.403,235.775 266.574 " stroke="none" fill="#ffffff" fill-rule="evenodd"></path><path id="path1" d="" stroke="none" fill="#ffffff" fill-rule="evenodd"></path></g></svg>
